<svg width="9" height="2" viewBox="0 0 9 2" fill="none" xmlns="http://www.w3.org/2000/svg">
<path d="M0.946793 1.8848C1.38879 1.8848 1.7471 1.52649 1.7471 1.08449C1.7471 0.642488 1.38879 0.28418 0.946793 0.28418C0.504795 0.28418 0.146484 0.642488 0.146484 1.08449C0.146484 1.52649 0.504795 1.8848 0.946793 1.8848Z" fill="#666668"/>
<path d="M4.4148 1.8848C4.8568 1.8848 5.2151 1.52649 5.2151 1.08449C5.2151 0.642488 4.8568 0.28418 4.4148 0.28418C3.9728 0.28418 3.61449 0.642488 3.61449 1.08449C3.61449 1.52649 3.9728 1.8848 4.4148 1.8848Z" fill="#666668"/>
<path d="M8.68311 1.08449C8.68311 1.52649 8.32478 1.8848 7.8828 1.8848C7.44082 1.8848 7.08249 1.52649 7.08249 1.08449C7.08249 0.642488 7.44082 0.28418 7.8828 0.28418C8.32478 0.28418 8.68311 0.642488 8.68311 1.08449Z" fill="#666668"/>
</svg>
